<?xml version="1.0" encoding="UTF-8"?><svg id="Ebene_2" xmlns="http://www.w3.org/2000/svg" viewBox="0 0 320.85 66"><defs><style>.cls-1{fill:#fff;}.cls-2{fill:#00aac1;}</style></defs><g id="Ebene_5"><path class="cls-1" d="m107.99,59.7c-3.7,0-6.98-.83-9.86-2.48-2.88-1.66-5.16-3.95-6.84-6.88-1.68-2.93-2.52-6.24-2.52-9.94s.84-7.13,2.52-10.01c1.68-2.88,3.96-5.14,6.84-6.77,2.88-1.63,6.17-2.45,9.86-2.45s7.07.83,9.97,2.48c2.9,1.66,5.18,3.91,6.84,6.77,1.66,2.86,2.48,6.18,2.48,9.97s-.83,7.07-2.48,9.97c-1.66,2.9-3.95,5.18-6.88,6.84-2.93,1.66-6.24,2.48-9.94,2.48Zm0-4.54c2.74,0,5.16-.61,7.27-1.84,2.11-1.22,3.78-2.95,5-5.18,1.22-2.23,1.84-4.81,1.84-7.74s-.61-5.57-1.84-7.78c-1.22-2.21-2.89-3.92-5-5.15-2.11-1.22-4.51-1.84-7.2-1.84s-5.09.61-7.2,1.84c-2.11,1.22-3.79,2.94-5.04,5.15-1.25,2.21-1.87,4.8-1.87,7.78s.62,5.51,1.87,7.74c1.25,2.23,2.92,3.96,5,5.18,2.09,1.22,4.48,1.84,7.16,1.84Z"/><path class="cls-1" d="m143.47,23.06c4.38-2.31,11.81-1.91,11.81-1.91l1.45.02v4.97c-.19,0-1.23,0-1.42,0-3.98,0-8.24-.24-10.5,2.19-2.26,2.42-1.97,7.24-1.97,11.71v19.3h-5.11v-26.71s-.65-6.18,5.75-9.56Z"/><path class="cls-1" d="m165.87,59.34V5.91h5.11v26.78l-.72,7.63.5,7.63v11.38h-4.9Zm19.51.36c-3.31,0-6.29-.76-8.93-2.27-2.64-1.51-4.73-3.71-6.26-6.59-1.54-2.88-2.3-6.36-2.3-10.44s.78-7.62,2.34-10.48c1.56-2.85,3.66-5.03,6.3-6.52,2.64-1.49,5.59-2.23,8.86-2.23,3.6,0,6.83.8,9.68,2.41,2.85,1.61,5.1,3.85,6.73,6.73,1.63,2.88,2.45,6.24,2.45,10.08s-.82,7.14-2.45,10.04c-1.63,2.9-3.88,5.17-6.73,6.8-2.86,1.63-6.08,2.45-9.68,2.45Zm-.36-4.54c2.69,0,5.09-.61,7.2-1.84,2.11-1.22,3.79-2.95,5.04-5.18,1.25-2.23,1.87-4.81,1.87-7.74s-.62-5.57-1.87-7.78c-1.25-2.21-2.93-3.92-5.04-5.15-2.11-1.22-4.51-1.84-7.2-1.84s-5.1.61-7.24,1.84c-2.14,1.22-3.82,2.94-5.04,5.15-1.22,2.21-1.84,4.8-1.84,7.78s.61,5.51,1.84,7.74c1.22,2.23,2.9,3.96,5.04,5.18,2.13,1.22,4.55,1.84,7.24,1.84Z"/><path class="cls-1" d="m230.1,59.7c-3.7,0-6.98-.83-9.86-2.48-2.88-1.66-5.16-3.95-6.84-6.88-1.68-2.93-2.52-6.24-2.52-9.94s.84-7.13,2.52-10.01c1.68-2.88,3.96-5.14,6.84-6.77,2.88-1.63,6.17-2.45,9.86-2.45s7.07.83,9.97,2.48c2.9,1.66,5.18,3.91,6.84,6.77,1.66,2.86,2.48,6.18,2.48,9.97s-.83,7.07-2.48,9.97c-1.66,2.9-3.95,5.18-6.88,6.84-2.93,1.66-6.24,2.48-9.94,2.48Zm0-4.54c2.74,0,5.16-.61,7.27-1.84,2.11-1.22,3.78-2.95,5-5.18,1.22-2.23,1.84-4.81,1.84-7.74s-.61-5.57-1.84-7.78c-1.22-2.21-2.89-3.92-5-5.15-2.11-1.22-4.51-1.84-7.2-1.84s-5.09.61-7.2,1.84c-2.11,1.22-3.79,2.94-5.04,5.15-1.25,2.21-1.87,4.8-1.87,7.78s.62,5.51,1.87,7.74c1.25,2.23,2.92,3.96,5,5.18,2.09,1.22,4.47,1.84,7.16,1.84Z"/><path class="cls-1" d="m253.78,25.35v-4.1h21.78v4.1h-21.78Zm19.73,34.42c-2.64,0-4.92-.38-6.84-1.15-1.92-.77-3.41-2.08-4.46-3.92-1.06-1.85-1.58-4.33-1.58-7.45V9.23h5.18v38.81c0,2.21.6,3.9,1.8,5.08,1.2,1.18,2.9,1.76,5.11,1.76h2.84v4.9h-2.05Z"/><path class="cls-1" d="m301.55,59.7c-3.7,0-6.98-.83-9.86-2.48-2.88-1.66-5.16-3.95-6.84-6.88-1.68-2.93-2.52-6.24-2.52-9.94s.84-7.13,2.52-10.01c1.68-2.88,3.96-5.14,6.84-6.77,2.88-1.63,6.17-2.45,9.86-2.45s7.07.83,9.97,2.48c2.9,1.66,5.18,3.91,6.84,6.77,1.66,2.86,2.48,6.18,2.48,9.97s-.83,7.07-2.48,9.97c-1.66,2.9-3.95,5.18-6.88,6.84-2.93,1.66-6.24,2.48-9.94,2.48Zm0-4.54c2.74,0,5.16-.61,7.27-1.84,2.11-1.22,3.78-2.95,5-5.18,1.22-2.23,1.84-4.81,1.84-7.74s-.61-5.57-1.84-7.78c-1.22-2.21-2.89-3.92-5-5.15-2.11-1.22-4.51-1.84-7.2-1.84s-5.09.61-7.2,1.84c-2.11,1.22-3.79,2.94-5.04,5.15-1.25,2.21-1.87,4.8-1.87,7.78s.62,5.51,1.87,7.74c1.25,2.23,2.92,3.96,5,5.18,2.09,1.22,4.48,1.84,7.16,1.84Z"/><path class="cls-2" d="m33,0C14.77,0,0,14.77,0,33s14.77,33,33,33,33-14.77,33-33S51.23,0,33,0Zm0,58c-13.81,0-25-11.19-25-25s11.19-25,25-25,25,11.19,25,25-11.19,25-25,25Z"/><circle class="cls-2" cx="33" cy="33" r="20"/></g></svg>