<?xml version="1.0" encoding="UTF-8" standalone="no"?>
<!DOCTYPE svg PUBLIC "-//W3C//DTD SVG 1.1//EN" "http://www.w3.org/Graphics/SVG/1.1/DTD/svg11.dtd">
<svg width="100%" height="100%" viewBox="0 0 234 56" version="1.1" xmlns="http://www.w3.org/2000/svg" xmlns:xlink="http://www.w3.org/1999/xlink" xml:space="preserve" xmlns:serif="http://www.serif.com/" style="fill-rule:evenodd;clip-rule:evenodd;stroke-linejoin:round;stroke-miterlimit:2;">
    <g id="Ebene_4">
        <path d="M20.96,55.52C16.93,55.52 13.34,54.62 10.2,52.81C7.06,51 4.57,48.51 2.74,45.31C0.91,42.12 -0.01,38.51 -0.01,34.48C-0.01,30.45 0.9,26.71 2.74,23.57C4.57,20.43 7.06,17.97 10.2,16.19C13.34,14.41 16.93,13.52 20.96,13.52C24.99,13.52 28.67,14.42 31.83,16.23C35,18.04 37.48,20.5 39.29,23.61C41.09,26.72 42,30.35 42,34.48C42,38.61 41.1,42.19 39.29,45.35C37.48,48.52 34.98,51 31.79,52.81C28.6,54.62 24.98,55.52 20.96,55.52ZM20.96,50.57C23.94,50.57 26.59,49.9 28.89,48.57C31.19,47.24 33.01,45.35 34.35,42.92C35.68,40.49 36.35,37.67 36.35,34.48C36.35,31.29 35.68,28.41 34.35,26C33.01,23.59 31.2,21.72 28.89,20.39C26.59,19.06 23.97,18.39 21.04,18.39C18.11,18.39 15.49,19.06 13.19,20.39C10.89,21.72 9.06,23.6 7.69,26C6.33,28.41 5.65,31.23 5.65,34.48C5.65,37.73 6.33,40.49 7.69,42.92C9.05,45.35 10.87,47.24 13.15,48.57C15.43,49.9 18.03,50.57 20.96,50.57Z" style="fill:rgb(0,170,193);fill-rule:nonzero;"/>
        <path d="M56.45,17.15C60.83,14.84 68.26,15.24 68.26,15.24L69.71,15.26L69.71,20.23L68.29,20.23C64.31,20.23 60.05,19.99 57.79,22.42C55.53,24.84 55.82,29.66 55.82,34.13L55.82,53.43L50.71,53.43L50.71,26.72C50.71,26.72 50.06,20.54 56.46,17.16L56.45,17.15Z" style="fill-rule:nonzero;"/>
        <path d="M78.85,53.42L78.85,0L83.96,0L83.96,26.78L83.24,34.41L83.74,42.04L83.74,53.42L78.84,53.42L78.85,53.42ZM98.36,53.78C95.05,53.78 92.07,53.02 89.43,51.51C86.79,50 84.7,47.8 83.17,44.92C81.63,42.04 80.87,38.56 80.87,34.48C80.87,30.4 81.65,26.86 83.21,24C84.77,21.15 86.87,18.97 89.51,17.48C92.15,15.99 95.1,15.25 98.37,15.25C101.97,15.25 105.2,16.05 108.05,17.66C110.9,19.27 113.15,21.51 114.78,24.39C116.41,27.27 117.23,30.63 117.23,34.47C117.23,38.31 116.41,41.61 114.78,44.51C113.15,47.41 110.9,49.68 108.05,51.31C105.19,52.94 101.97,53.76 98.37,53.76L98.36,53.78ZM98,49.24C100.69,49.24 103.09,48.63 105.2,47.4C107.31,46.18 108.99,44.45 110.24,42.22C111.49,39.99 112.11,37.41 112.11,34.48C112.11,31.55 111.49,28.91 110.24,26.7C108.99,24.49 107.31,22.78 105.2,21.55C103.09,20.33 100.69,19.71 98,19.71C95.31,19.71 92.9,20.32 90.76,21.55C88.62,22.77 86.94,24.49 85.72,26.7C84.5,28.91 83.88,31.5 83.88,34.48C83.88,37.46 84.49,39.99 85.72,42.22C86.94,44.45 88.62,46.18 90.76,47.4C92.89,48.62 95.31,49.24 98,49.24Z" style="fill-rule:nonzero;"/>
        <path d="M143.07,53.78C139.37,53.78 136.09,52.95 133.21,51.3C130.33,49.64 128.05,47.35 126.37,44.42C124.69,41.49 123.85,38.18 123.85,34.48C123.85,30.78 124.69,27.35 126.37,24.47C128.05,21.59 130.33,19.33 133.21,17.7C136.09,16.07 139.38,15.25 143.07,15.25C146.76,15.25 150.14,16.08 153.04,17.73C155.94,19.39 158.22,21.64 159.88,24.5C161.54,27.36 162.36,30.68 162.36,34.47C162.36,38.26 161.53,41.54 159.88,44.44C158.22,47.34 155.93,49.62 153,51.28C150.07,52.94 146.76,53.76 143.06,53.76L143.07,53.78ZM143.07,49.24C145.81,49.24 148.23,48.63 150.34,47.4C152.45,46.18 154.12,44.45 155.34,42.22C156.56,39.99 157.18,37.41 157.18,34.48C157.18,31.55 156.57,28.91 155.34,26.7C154.12,24.49 152.45,22.78 150.34,21.55C148.23,20.33 145.83,19.71 143.14,19.71C140.45,19.71 138.05,20.32 135.94,21.55C133.83,22.77 132.15,24.49 130.9,26.7C129.65,28.91 129.03,31.5 129.03,34.48C129.03,37.46 129.65,39.99 130.9,42.22C132.15,44.45 133.82,46.18 135.9,47.4C137.99,48.62 140.37,49.24 143.06,49.24L143.07,49.24Z" style="fill-rule:nonzero;"/>
        <path d="M166.76,19.44L166.76,15.34L188.54,15.34L188.54,19.44L166.76,19.44ZM186.49,53.86C183.85,53.86 181.57,53.48 179.65,52.71C177.73,51.94 176.24,50.63 175.19,48.79C174.13,46.94 173.61,44.46 173.61,41.34L173.61,3.31L178.79,3.31L178.79,42.12C178.79,44.33 179.39,46.02 180.59,47.2C181.79,48.38 183.49,48.96 185.7,48.96L188.54,48.96L188.54,53.86L186.49,53.86Z" style="fill-rule:nonzero;"/>
        <path d="M214.53,53.78C210.83,53.78 207.55,52.95 204.67,51.3C201.79,49.64 199.51,47.35 197.83,44.42C196.15,41.49 195.31,38.18 195.31,34.48C195.31,30.78 196.15,27.35 197.83,24.47C199.51,21.59 201.79,19.33 204.67,17.7C207.55,16.07 210.84,15.25 214.53,15.25C218.22,15.25 221.6,16.08 224.5,17.73C227.4,19.39 229.68,21.64 231.34,24.5C233,27.36 233.82,30.68 233.82,34.47C233.82,38.26 232.99,41.54 231.34,44.44C229.68,47.34 227.39,49.62 224.46,51.28C221.53,52.94 218.22,53.76 214.52,53.76L214.53,53.78ZM214.53,49.24C217.27,49.24 219.69,48.63 221.8,47.4C223.91,46.18 225.58,44.45 226.8,42.22C228.02,39.99 228.64,37.41 228.64,34.48C228.64,31.55 228.03,28.91 226.8,26.7C225.58,24.49 223.91,22.78 221.8,21.55C219.69,20.33 217.29,19.71 214.6,19.71C211.91,19.71 209.51,20.32 207.4,21.55C205.29,22.77 203.61,24.49 202.36,26.7C201.11,28.91 200.49,31.5 200.49,34.48C200.49,37.46 201.11,39.99 202.36,42.22C203.61,44.45 205.28,46.18 207.36,47.4C209.45,48.62 211.84,49.24 214.52,49.24L214.53,49.24Z" style="fill-rule:nonzero;"/>
        <path d="M20.98,46.75C18.77,46.75 16.81,46.22 15.09,45.17C13.37,44.12 12.01,42.66 11.01,40.8C10.01,38.94 9.51,36.84 9.51,34.49C9.51,32.14 10.01,29.96 11.01,28.14C12.01,26.31 13.37,24.88 15.09,23.84C16.81,22.8 18.77,22.29 20.98,22.29C23.19,22.29 25.2,22.82 26.93,23.87C28.66,24.92 30.02,26.35 31.01,28.17C32,29.98 32.49,32.09 32.49,34.5C32.49,36.91 32,38.99 31.01,40.83C30.02,42.67 28.65,44.12 26.91,45.17C25.16,46.22 23.19,46.75 20.98,46.75Z" style="fill:rgb(0,170,193);fill-rule:nonzero;"/>
    </g>
</svg>
