<?xml version="1.0" encoding="UTF-8"?><svg id="Ebene_2" xmlns="http://www.w3.org/2000/svg" viewBox="0 0 233.83 55.52"><defs><style>.cls-1{fill:#fff;}.cls-2{fill:#00aac1;}</style></defs><g id="Ebene_4"><path class="cls-2" d="m20.96,55.52c-4.03,0-7.62-.9-10.76-2.71-3.14-1.81-5.63-4.3-7.46-7.5-1.83-3.19-2.75-6.8-2.75-10.83s.91-7.77,2.75-10.91c1.83-3.14,4.32-5.6,7.46-7.38,3.14-1.78,6.73-2.67,10.76-2.67s7.71.9,10.87,2.71c3.17,1.81,5.65,4.27,7.46,7.38,1.8,3.11,2.71,6.74,2.71,10.87s-.9,7.71-2.71,10.87c-1.81,3.17-4.31,5.65-7.5,7.46-3.19,1.81-6.81,2.71-10.83,2.71Zm0-4.95c2.98,0,5.63-.67,7.93-2,2.3-1.33,4.12-3.22,5.46-5.65,1.33-2.43,2-5.25,2-8.44s-.67-6.07-2-8.48c-1.34-2.41-3.15-4.28-5.46-5.61-2.3-1.33-4.92-2-7.85-2s-5.55.67-7.85,2c-2.3,1.33-4.13,3.21-5.5,5.61-1.36,2.41-2.04,5.23-2.04,8.48s.68,6.01,2.04,8.44c1.36,2.43,3.18,4.32,5.46,5.65,2.28,1.33,4.88,2,7.81,2Z"/><path class="cls-1" d="m56.45,17.15c4.38-2.31,11.81-1.91,11.81-1.91l1.45.02v4.97c-.19,0-1.23,0-1.42,0-3.98,0-8.24-.24-10.5,2.19-2.26,2.42-1.97,7.24-1.97,11.71v19.3h-5.11v-26.71s-.65-6.18,5.75-9.56Z"/><path class="cls-1" d="m78.85,53.42V0h5.11v26.78l-.72,7.63.5,7.63v11.38h-4.9Zm19.51.36c-3.31,0-6.29-.76-8.93-2.27-2.64-1.51-4.73-3.71-6.26-6.59-1.54-2.88-2.3-6.36-2.3-10.44s.78-7.62,2.34-10.48c1.56-2.85,3.66-5.03,6.3-6.52,2.64-1.49,5.59-2.23,8.86-2.23,3.6,0,6.83.8,9.68,2.41,2.85,1.61,5.1,3.85,6.73,6.73,1.63,2.88,2.45,6.24,2.45,10.08s-.82,7.14-2.45,10.04c-1.63,2.9-3.88,5.17-6.73,6.8-2.86,1.63-6.08,2.45-9.68,2.45Zm-.36-4.54c2.69,0,5.09-.61,7.2-1.84,2.11-1.22,3.79-2.95,5.04-5.18,1.25-2.23,1.87-4.81,1.87-7.74s-.62-5.57-1.87-7.78c-1.25-2.21-2.93-3.92-5.04-5.15-2.11-1.22-4.51-1.84-7.2-1.84s-5.1.61-7.24,1.84c-2.14,1.22-3.82,2.94-5.04,5.15-1.22,2.21-1.84,4.8-1.84,7.78s.61,5.51,1.84,7.74c1.22,2.23,2.9,3.96,5.04,5.18,2.13,1.22,4.55,1.84,7.24,1.84Z"/><path class="cls-1" d="m143.07,53.78c-3.7,0-6.98-.83-9.86-2.48-2.88-1.66-5.16-3.95-6.84-6.88-1.68-2.93-2.52-6.24-2.52-9.94s.84-7.13,2.52-10.01c1.68-2.88,3.96-5.14,6.84-6.77,2.88-1.63,6.17-2.45,9.86-2.45s7.07.83,9.97,2.48c2.9,1.66,5.18,3.91,6.84,6.77,1.66,2.86,2.48,6.18,2.48,9.97s-.83,7.07-2.48,9.97c-1.66,2.9-3.95,5.18-6.88,6.84-2.93,1.66-6.24,2.48-9.94,2.48Zm0-4.54c2.74,0,5.16-.61,7.27-1.84,2.11-1.22,3.78-2.95,5-5.18,1.22-2.23,1.84-4.81,1.84-7.74s-.61-5.57-1.84-7.78c-1.22-2.21-2.89-3.92-5-5.15-2.11-1.22-4.51-1.84-7.2-1.84s-5.09.61-7.2,1.84c-2.11,1.22-3.79,2.94-5.04,5.15-1.25,2.21-1.87,4.8-1.87,7.78s.62,5.51,1.87,7.74c1.25,2.23,2.92,3.96,5,5.18,2.09,1.22,4.47,1.84,7.16,1.84Z"/><path class="cls-1" d="m166.76,19.44v-4.1h21.78v4.1h-21.78Zm19.73,34.42c-2.64,0-4.92-.38-6.84-1.15-1.92-.77-3.41-2.08-4.46-3.92-1.06-1.85-1.58-4.33-1.58-7.45V3.31h5.18v38.81c0,2.21.6,3.9,1.8,5.08,1.2,1.18,2.9,1.76,5.11,1.76h2.84v4.9h-2.05Z"/><path class="cls-1" d="m214.53,53.78c-3.7,0-6.98-.83-9.86-2.48-2.88-1.66-5.16-3.95-6.84-6.88-1.68-2.93-2.52-6.24-2.52-9.94s.84-7.13,2.52-10.01c1.68-2.88,3.96-5.14,6.84-6.77,2.88-1.63,6.17-2.45,9.86-2.45s7.07.83,9.97,2.48c2.9,1.66,5.18,3.91,6.84,6.77,1.66,2.86,2.48,6.18,2.48,9.97s-.83,7.07-2.48,9.97c-1.66,2.9-3.95,5.18-6.88,6.84-2.93,1.66-6.24,2.48-9.94,2.48Zm0-4.54c2.74,0,5.16-.61,7.27-1.84,2.11-1.22,3.78-2.95,5-5.18,1.22-2.23,1.84-4.81,1.84-7.74s-.61-5.57-1.84-7.78c-1.22-2.21-2.89-3.92-5-5.15-2.11-1.22-4.51-1.84-7.2-1.84s-5.09.61-7.2,1.84c-2.11,1.22-3.79,2.94-5.04,5.15-1.25,2.21-1.87,4.8-1.87,7.78s.62,5.51,1.87,7.74c1.25,2.23,2.92,3.96,5,5.18,2.09,1.22,4.48,1.84,7.16,1.84Z"/><path class="cls-2" d="m20.98,46.75c-2.21,0-4.17-.53-5.89-1.58-1.72-1.05-3.08-2.51-4.08-4.37-1-1.86-1.5-3.96-1.5-6.31s.5-4.53,1.5-6.35c1-1.83,2.36-3.26,4.08-4.3,1.72-1.04,3.68-1.55,5.89-1.55s4.22.53,5.95,1.58c1.73,1.05,3.09,2.48,4.08,4.3.99,1.81,1.48,3.92,1.48,6.33s-.49,4.49-1.48,6.33c-.99,1.84-2.36,3.29-4.1,4.34-1.75,1.05-3.72,1.58-5.93,1.58Z"/></g></svg>